<svg version="1" xmlns="http://www.w3.org/2000/svg" width="697.333" height="697.333" viewBox="0 0 523.000000 523.000000"><path d="M127.4 64.1c-20.9 3.5-45.5 18.7-59.1 36.4C57.8 114.2 52.6 125.8 49 144c-1.1 5.2-4 19.4-6.5 31.5-2.5 12.1-5.2 25.1-6 29-.8 3.8-4.3 21.2-7.9 38.5-3.6 17.3-9.2 44.8-12.6 61-14 67.8-14 67.8-14 78.9 0 12.5 1.8 20.5 7.1 32 6.9 14.9 18.1 26.2 33.4 33.6 17.4 8.5 7.7 8 142.4 8h119.5l1.3-6.5c.8-3.6 2.5-11.3 3.8-17.3 1.4-5.9 2.5-11.2 2.5-11.7 0-.6-45.2-1.1-122.2-1.2l-122.3-.3-6-2.4c-8.4-3.4-17.4-12.4-20.4-20.6-3.2-8.5-3.1-16.9.7-35 1.7-8.3 5.2-24.9 7.7-37 4.3-20.7 7.3-35.3 19.5-94.8 2.7-13.3 7-34.1 9.5-46.2 2.5-12.1 5.5-26.5 6.6-32 4.7-24.2 19.3-41.3 41.8-49.1l7-2.4 162.3.2 162.3.3 5.5 2.7c7.9 3.9 13.2 8.8 16.7 15.5 3.6 6.6 5.7 16.5 4.8 22.1-.7 3.6-13.8 68.2-19.5 95.7-1.6 7.7-4.3 20.7-6 29-2.9 14-4.2 20.6-12 58.3-1.7 8.1-4.4 21.2-6.1 29.2-6.5 32-8.4 36.4-19.9 48.1-12.1 12.2-23.4 17.5-39.6 18.6-11.2.7-10.7 2.1-6.5-16.4 4.7-20.1 8.5-37.1 16.6-74.3 7.7-34.9 14.5-66 19.1-86.9 8.7-39.6 2.5-62.1-20-73.1-8.7-4.2-16.5-6-29.1-6.7-13.8-.7-24.9 1.3-35.4 6.2-8.4 4-19.1 12.2-24.8 19-2 2.5-4 4.5-4.3 4.5-.4 0-1.4-2.4-2.3-5.4-4.7-14.7-18.7-23.1-40.4-24.3-8.3-.5-11.9-.2-19.6 1.6-15.5 3.6-32.8 13.3-40.7 22.9-3.7 4.5-3.8 3.7-.5-11.4 1.4-6.4 2.5-12 2.5-12.5s-11.8-.9-28.5-.9c-15.7 0-28.5.2-28.5.5 0 .4-7.6 37-14.1 68-.6 2.7-2.3 11.3-3.9 19-3.2 15.5-7.5 35.9-14.4 68.5-2.5 11.8-4.8 23.4-5.2 25.8l-.7 4.2h59l1.1-5.3c.6-2.8 3.9-18.3 7.2-34.2 14.7-69.9 15.4-72.8 19.5-81.4 6.4-13.3 15.8-19.4 30-19.4 9.6-.1 13.8 1.9 17.2 8 4.3 8 4 14.5-2.7 46.3-10.1 48-13.3 63.2-15.1 72-1.1 5.2-2.2 10.5-2.4 11.8l-.5 2.2 29.7-.2 29.7-.3 1.2-6c.7-3.3 2.6-12.5 4.3-20.5 1.7-8 4.7-22.2 6.6-31.5 11.3-54.1 13.9-62.2 22.1-71.5 6.5-7.1 13.4-10.2 23.2-10.3 6.5-.1 8.4.2 12.1 2.3 10.4 6 11 16.7 2.6 52.5-.9 3.8-2.7 11.9-4 18-1.3 6-3.5 16.2-4.9 22.5-3.3 15.1-14.9 68.9-18.6 86-1.6 7.4-3.6 16.4-4.4 20-.9 3.6-1.6 7.5-1.6 8.7v2.3h29.5c16.2 0 29.5.4 29.5.8s-1.6 7.9-3.5 16.6c-1.9 8.8-3.5 16.7-3.5 17.7 0 1.7.9 1.9 9.8 1.9 30.5 0 54.9-10.2 74.7-31.1 10.5-11.1 16.5-20.8 21.4-34.4 1.8-5.1 7-28.9 15.1-69.5 1.1-5.2 4-19.4 6.5-31.5 2.6-12.1 5.5-26.3 6.5-31.5 1-5.2 4.6-22.8 8-39 16.4-79 15.2-72.2 14.7-86-.3-9.8-.9-14.2-3-20.3-7.3-22.4-24.5-39.3-48.2-47.5l-8-2.7-165-.1c-90.7-.1-167.3.2-170.1.7z"/></svg>